<svg width="922" height="603" viewBox="0 0 922 603" fill="none" xmlns="http://www.w3.org/2000/svg">
<path d="M676.941 0.441406C691.07 0.515625 701.914 35.1875 709.34 104.559C712.398 132.68 715.031 188.488 717.281 271.973C719.469 350.949 721.148 394.016 722.313 401.078C725.953 422.43 732.934 436.418 743.273 442.973C748.509 446.291 756.401 447.97 767.102 448.008V447.855C785.336 447.934 806.18 443.668 829.617 435.055C854.285 426.145 873.168 415.43 886.266 402.832C886.266 395.156 880.832 388.504 869.84 382.996C860.141 378.012 849.656 375.477 838.52 375.398H808.848C797.781 375.477 789.023 371.852 782.586 364.613C776.152 357.457 772.898 348.187 772.898 336.82C772.898 321.328 778.246 305.766 788.813 290.059C799.363 274.418 810.297 266.606 821.508 266.531C840.035 266.605 857.316 277.168 873.238 298.16C890.453 321.105 899.063 348.402 899.063 379.965C899.063 408.621 890.453 431.645 873.168 449.012C844.039 478.524 809.066 493.287 768.109 493.525V493.535C767.843 493.535 767.578 493.531 767.314 493.529C767.244 493.529 767.173 493.531 767.102 493.531V493.528C751.199 493.396 738.866 490.116 730.09 483.559C717.137 474.012 708.398 456.234 703.875 430.152C700.961 414.121 698.352 366.621 695.875 287.719C693.32 202.176 691.07 149.652 689.031 130.27C686.184 101.855 682.543 79.2695 678.109 62.5156C674.469 48.3789 671.262 41.3164 668.496 41.2383C664.418 41.3166 657.863 53.7698 648.691 78.543C647.223 82.8476 645.777 84.9531 644.32 84.8867C643.012 84.953 642.574 82.4764 643.012 77.375C644.973 58.5781 649.262 41.2383 655.973 25.3555C662.953 8.82431 669.953 0.515713 676.941 0.441406ZM815.219 309.379C805.52 309.457 800.676 312.645 800.676 319.016C800.676 326.254 806.754 330.52 818.832 331.977C825.926 332.258 836.848 332.984 851.606 334.285C840.832 317.781 828.676 309.457 815.219 309.379Z" fill="black"/>
<path d="M232.23 180.277C241.746 180.277 246.523 189.379 246.523 207.594C246.523 231.012 241.602 251.277 231.773 268.395C220.541 287.775 207.049 306.965 191.307 325.945C196.252 333.347 201.335 341.103 206.551 349.215C218.504 367.887 231.395 385.082 245.164 400.672C260.862 418.579 279.729 432.813 301.762 443.383V442.988C317.266 450.129 336.566 453.613 359.652 453.547C382.516 453.613 406.762 448.523 432.391 438.168C454.75 429.145 475.062 417.555 493.266 403.277C496.176 401.09 498.574 400.004 500.547 399.926C502.73 400.004 503.75 401.305 503.75 403.781C503.75 405.094 503.461 406.559 502.809 408.297C500.402 415.66 499.168 421.996 499.168 427.387C499.168 444.222 511.389 452.604 535.863 452.526V452.5C554.215 452.578 575.184 447.699 598.777 439.035C623.602 430.07 642.602 419.285 655.797 406.609C655.797 398.887 650.332 392.184 639.262 386.648C629.504 381.625 618.941 379.07 607.738 378.992H577.875C566.738 379.07 557.934 375.426 551.445 368.141C544.973 360.934 541.688 351.605 541.688 340.164C541.688 324.574 547.078 308.914 557.707 293.098C568.34 277.359 579.34 269.492 590.621 269.426C609.262 269.492 626.668 280.129 642.68 301.258C660.008 324.348 668.68 351.82 668.68 383.586C668.68 412.438 660.008 435.605 642.602 453.094C613.047 483.031 577.516 497.906 535.863 497.906V497.843C517.369 497.842 503.82 494.562 495.305 487.867C486.207 480.797 481.176 468.41 480.234 450.777C480.09 449.32 479.441 448.523 478.195 448.445C476.594 448.523 474.043 449.902 470.691 452.605C456.711 464.328 440.613 474.461 422.344 482.98C398.023 494.492 375.012 500.176 353.234 500.176C337.148 500.176 319.965 496.457 301.762 488.957V488.945C287.175 482.932 275.891 476.73 267.883 470.383C254.262 459.602 237.988 441.504 219.066 416.004C206.371 398.949 190.544 376.398 171.576 348.364C165.56 354.823 159.28 361.257 152.734 367.664C171.355 396.352 180.648 419.762 180.648 437.781C180.648 443.59 179.32 451.062 176.707 460.211C174.055 469.43 171.281 476.223 168.395 480.594C162.641 489.539 152.434 498.652 137.754 507.91C121.98 517.777 108.523 522.703 97.3281 522.703C79.4258 522.703 70.5117 509.504 70.5117 483.09C70.5117 447.078 85.8047 412.312 116.406 378.73C106.543 368.422 99.6406 361.059 95.7344 356.656C72.2617 385.801 44.1641 407.426 11.4648 421.539C5.39453 424.125 1.75391 425.414 0.542969 425.414C0.242188 425.414 0.09375 425.336 0.09375 425.184C0.09375 424.277 3.96094 420.48 11.6953 413.809C36.9883 391.793 60.9609 367.691 83.6758 341.434C65.8125 318.977 56.8242 295.488 56.6758 270.898V268.695C56.6758 229.762 64.6758 210.332 80.7148 210.332C95.7925 210.332 117.574 228.041 146.068 263.425C161.946 243.379 175.822 226.595 187.707 213.062C207.086 191.203 221.91 180.277 232.23 180.277ZM131.387 392.629C105.328 419.305 89.4453 442.074 83.6758 460.969C83.375 462.184 83.2227 463.312 83.2227 464.391C83.2227 473.074 89.8242 477.398 102.98 477.398C108.59 477.398 116.25 475.348 125.922 471.258C139.387 465.602 151.602 457.48 162.484 446.777C166.125 443.25 167.949 440.629 167.949 438.891C167.949 438.5 167.832 438.199 167.715 437.898C159.562 421.578 147.426 406.52 131.387 392.629ZM140.258 302.226C132.099 312.81 125.134 322.152 119.367 330.246C124.484 336.473 131.086 344.137 139.125 353.23C144.696 348.465 151.766 341.275 160.345 331.671C157.856 327.953 155.318 324.154 152.734 320.27C148.42 313.801 144.261 307.787 140.258 302.226ZM584.293 312.555C574.535 312.625 569.652 315.828 569.652 322.242C569.652 329.535 575.766 333.832 587.934 335.277C595.059 335.578 606.059 336.309 620.914 337.617C610.066 321.008 597.824 312.625 584.293 312.555ZM84.1328 251.094C78.707 251.094 75.9805 254.734 75.9805 261.98C75.9805 277.391 85.6484 295.602 105.027 316.586C113.117 305.887 120.842 295.779 128.205 286.261C109.517 262.821 94.8408 251.094 84.1328 251.094ZM217.707 222.094C214.367 222.094 210.648 223.379 206.551 225.973C199.426 230.527 184.445 246.914 161.57 275.145C160.478 276.509 159.399 277.859 158.335 279.194C165.138 288.225 172.279 298.142 179.756 308.947C195.61 289.6 207.188 274.309 214.512 263.07C222.668 250.48 226.766 240.309 226.766 232.578C226.766 225.594 223.734 222.094 217.707 222.094Z" fill="black"/>
<path d="M558.469 180.281L599.188 204.246L579.238 239.402L538.508 215.434L558.469 180.281Z" fill="black"/>
<path fill-rule="evenodd" clip-rule="evenodd" d="M379.375 565.133L335.336 540.73L316.363 577.344C321.113 581.238 352.617 599.879 359.723 602.25L375.141 572.934L418.5 596.996L437.309 560.215L394.453 538.195L379.375 565.133Z" fill="black"/>
<path fill-rule="evenodd" clip-rule="evenodd" d="M813.172 198.824L769.133 174.414L750.164 211.027C754.902 214.922 786.406 233.574 793.523 235.945L808.93 206.617L852.301 230.688L871.105 193.91L828.25 171.879L813.172 198.824Z" fill="black"/>
<path fill-rule="evenodd" clip-rule="evenodd" d="M138.918 134.758L94.8789 110.355L75.9062 146.961C80.6562 150.863 112.16 169.508 119.266 171.875L134.684 142.559L178.043 166.621L196.848 129.844L153.996 107.812L138.918 134.758Z" fill="black"/>
<path fill-rule="evenodd" clip-rule="evenodd" d="M487.36 592.414C516.254 581.516 545.449 565.41 587.758 549.77C605.43 543.137 622.012 536.812 639.68 530.34C672.207 518.5 678.36 520.559 681.039 500.18C638.738 509.328 547.031 548.031 500.149 567.781C487.992 572.988 486.887 575.668 487.36 592.414Z" fill="black"/>
<path fill-rule="evenodd" clip-rule="evenodd" d="M293.59 371.207C322.485 360.309 351.676 344.203 393.988 328.551C411.668 321.926 428.238 315.602 445.918 309.133C478.446 297.289 484.59 299.34 487.278 278.961C444.969 288.121 353.258 326.824 306.375 346.562C294.219 351.777 293.125 354.461 293.59 371.207Z" fill="black"/>
<path d="M921.23 62.0469C922.25 63.582 921.609 66.7891 919.309 71.6641C916.996 76.5312 915.336 79.2227 914.309 79.7383C882.539 91.5312 850.754 103.324 818.988 115.117C778.504 130.504 749.289 143.316 731.348 153.574C730.328 151.527 730.328 147.68 731.348 142.035C732.375 136.914 733.656 133.836 735.191 132.809C792.074 107.172 854.094 83.5859 921.23 62.0469Z" fill="black"/>
</svg>
