<?xml version="1.0" encoding="UTF-8"?>
<svg xmlns="http://www.w3.org/2000/svg" xmlns:xlink="http://www.w3.org/1999/xlink" width="26px" height="32px" viewBox="0 0 26 32" version="1.1">
<g id="surface1">
<path style=" stroke:none;fill-rule:nonzero;fill:rgb(0%,0%,0%);fill-opacity:1;" d="M 17.546875 17.464844 C 17.367188 17.230469 17.222656 17.011719 17.101562 16.804688 C 16.984375 16.570312 16.925781 16.277344 16.925781 15.925781 C 16.925781 15.691406 16.96875 15.441406 17.058594 15.175781 C 17.175781 14.882812 17.308594 14.589844 17.457031 14.292969 C 17.695312 13.824219 17.917969 13.355469 18.125 12.886719 C 18.332031 12.414062 18.539062 11.945312 18.746094 11.476562 C 18.984375 10.976562 19.25 10.492188 19.546875 10.023438 C 19.84375 9.523438 20.167969 9.082031 20.523438 8.703125 C 20.761719 8.464844 21.015625 8.304688 21.28125 8.21875 C 21.578125 8.097656 21.917969 8.113281 22.304688 8.261719 C 22.808594 8.464844 23.25 8.730469 23.636719 9.054688 C 24.316406 9.757812 24.867188 10.59375 25.28125 11.5625 C 25.726562 12.503906 25.949219 13.632812 25.949219 14.957031 C 25.949219 15.453125 25.917969 15.9375 25.859375 16.410156 C 25.800781 16.878906 25.710938 17.347656 25.59375 17.816406 C 24.910156 20.929688 23.933594 23.574219 22.660156 25.746094 C 21.414062 27.890625 19.605469 29.5625 17.234375 30.765625 C 16.496094 31.117188 15.722656 31.414062 14.925781 31.648438 C 14.152344 31.882812 13.292969 32 12.347656 32 L 11.992188 32 C 10.921875 32 9.988281 31.75 9.191406 31.25 C 8.417969 30.753906 7.78125 30.179688 7.277344 29.535156 C 6.539062 28.535156 6.167969 27.257812 6.167969 25.703125 C 6.167969 24.910156 6.242188 24.101562 6.390625 23.28125 C 6.566406 22.429688 6.65625 21.589844 6.65625 20.769531 L 6.566406 20.328125 C 4.226562 20.710938 2.359375 21.839844 0.964844 23.71875 C 0.820312 23.925781 0.597656 23.96875 0.300781 23.851562 C 0.0351562 23.734375 -0.0546875 23.527344 0.0351562 23.234375 C 0.390625 22.148438 0.730469 21.09375 1.054688 20.066406 C 1.410156 19.007812 1.8125 17.964844 2.253906 16.9375 C 3.113281 16.175781 4.046875 15.511719 5.054688 14.957031 C 6.0625 14.367188 7.25 13.972656 8.613281 13.765625 C 9.53125 13.679688 9.988281 14.074219 9.988281 14.957031 C 9.960938 15.511719 9.902344 16.085938 9.8125 16.671875 C 9.753906 17.230469 9.648438 17.789062 9.5 18.347656 L 9.546875 18.347656 C 9.488281 18.726562 9.425781 19.109375 9.367188 19.492188 C 9.339844 19.875 9.324219 20.269531 9.324219 20.679688 L 9.324219 21.164062 C 9.324219 22.515625 9.632812 23.5 10.257812 24.117188 C 10.910156 24.703125 11.871094 24.996094 13.144531 24.996094 C 13.621094 24.996094 14.125 24.953125 14.65625 24.863281 C 15.515625 24.6875 16.40625 24.425781 17.324219 24.074219 C 18.273438 23.691406 19.160156 23.265625 19.992188 22.796875 C 20.820312 22.296875 21.503906 21.828125 22.035156 21.386719 C 22.035156 20.886719 22.007812 20.34375 21.949219 19.757812 C 21.917969 19.140625 21.828125 18.640625 21.679688 18.257812 C 21.234375 18.347656 20.777344 18.390625 20.300781 18.390625 L 19.945312 18.390625 C 18.910156 18.390625 18.109375 18.082031 17.546875 17.464844 Z M 17.546875 17.464844 "/>
<path style=" stroke:none;fill-rule:nonzero;fill:rgb(0%,0%,0%);fill-opacity:1;" d="M 15.160156 3.371094 C 16.554688 2.785156 18.066406 2.210938 19.695312 1.65625 C 21.296875 1.066406 22.820312 0.523438 24.273438 0.0234375 C 24.480469 -0.0351562 24.660156 0.0117188 24.808594 0.15625 C 24.957031 0.273438 24.957031 0.449219 24.808594 0.6875 L 23.472656 2.84375 L 18.628906 4.5625 C 17.859375 4.824219 17.117188 5.105469 16.40625 5.398438 C 15.664062 5.722656 14.953125 6.042969 14.273438 6.367188 C 14.066406 6.484375 13.886719 6.457031 13.738281 6.277344 C 13.589844 6.101562 13.574219 5.914062 13.695312 5.707031 Z M 15.160156 3.371094 "/>
</g>
</svg>
