<svg width="50" height="32" viewBox="0 0 50 32" fill="none" xmlns="http://www.w3.org/2000/svg">
<path d="M36.4527 0C37.2038 0.00394653 37.7803 1.84759 38.1751 5.53636C38.3377 7.03167 38.4777 9.99921 38.5973 14.4384C38.7136 18.6379 38.8029 20.928 38.8648 21.3035C39.0584 22.4389 39.4295 23.1827 39.9792 23.5312C40.2575 23.7076 40.6771 23.7969 41.246 23.7989V23.7908C42.2154 23.795 43.3236 23.5682 44.5696 23.1102C45.881 22.6364 46.8849 22.0666 47.5813 21.3968C47.5813 20.9886 47.2924 20.6349 46.708 20.342C46.1924 20.077 45.6349 19.9422 45.0429 19.938H43.4654C42.877 19.9422 42.4114 19.7494 42.0692 19.3645C41.7271 18.984 41.5542 18.4911 41.5542 17.8866C41.5542 17.0629 41.8385 16.2354 42.4003 15.4002C42.9611 14.5685 43.5424 14.1531 44.1385 14.1491C45.1234 14.153 46.0422 14.7147 46.8886 15.8309C47.8039 17.051 48.2616 18.5025 48.2616 20.1808C48.2616 21.7046 47.8039 22.9289 46.8849 23.8523C45.3363 25.4216 43.477 26.2066 41.2995 26.2193V26.2198C41.2854 26.2198 41.2713 26.2196 41.2573 26.2195C41.2536 26.2195 41.2498 26.2196 41.246 26.2196V26.2194C40.4005 26.2124 39.7449 26.038 39.2783 25.6893C38.5897 25.1817 38.1251 24.2364 37.8846 22.8495C37.7297 21.997 37.591 19.4713 37.4593 15.2757C37.3235 10.7271 37.2038 7.93414 37.0954 6.90352C36.9441 5.39258 36.7505 4.19161 36.5148 3.30074C36.3213 2.54903 36.1508 2.17349 36.0037 2.16934C35.7869 2.1735 35.4384 2.83569 34.9508 4.15298C34.8727 4.38187 34.7959 4.49383 34.7184 4.4903C34.6489 4.49383 34.6256 4.36214 34.6489 4.09087C34.7531 3.09137 34.9811 2.16934 35.3379 1.32478C35.709 0.445753 36.0812 0.00395121 36.4527 0ZM43.8041 16.4275C43.2885 16.4316 43.0309 16.6011 43.0309 16.9399C43.0309 17.3248 43.3541 17.5516 43.9962 17.6291C44.3733 17.644 44.954 17.6826 45.7386 17.7518C45.1658 16.8742 44.5195 16.4316 43.8041 16.4275Z" fill="black"/>
<path d="M12.8096 9.56201C13.3155 9.56201 13.5695 10.046 13.5695 11.0146C13.5695 12.2598 13.3078 13.3374 12.7853 14.2476C12.1882 15.2781 11.4709 16.2985 10.634 17.3078C10.8968 17.7014 11.1671 18.1138 11.4444 18.5451C12.0799 19.538 12.7652 20.4523 13.4972 21.2813C14.3318 22.2335 15.3348 22.9904 16.5062 23.5524V23.5314C17.3305 23.9111 18.3565 24.0964 19.5839 24.0929C20.7994 24.0964 22.0884 23.8257 23.451 23.2751C24.6397 22.7953 25.7195 22.1791 26.6873 21.4198C26.842 21.3035 26.9695 21.2458 27.0744 21.2416C27.1905 21.2458 27.2447 21.315 27.2447 21.4466C27.2447 21.5165 27.2293 21.5944 27.1947 21.6868C27.0667 22.0783 27.0011 22.4152 27.0011 22.7019C27.0011 23.597 27.6508 24.0428 28.952 24.0386V24.0372C29.9276 24.0414 31.0424 23.7819 32.2967 23.3212C33.6165 22.8445 34.6267 22.271 35.3282 21.597C35.3282 21.1864 35.0376 20.83 34.4491 20.5356C33.9303 20.2685 33.3687 20.1326 32.7731 20.1285H31.1855C30.5934 20.1326 30.1254 19.9389 29.7804 19.5515C29.4363 19.1683 29.2617 18.6722 29.2617 18.0639C29.2617 17.2349 29.5482 16.4022 30.1133 15.5612C30.6786 14.7243 31.2634 14.3059 31.8631 14.3024C32.8542 14.3059 33.7795 14.8716 34.6308 15.9951C35.552 17.2229 36.0131 18.6837 36.0131 20.3728C36.0131 21.907 35.552 23.1388 34.6267 24.0688C33.0554 25.6607 31.1664 26.4516 28.952 26.4516V26.4483C27.9688 26.4482 27.2484 26.2738 26.7957 25.9178C26.3121 25.5419 26.0446 24.8832 25.9945 23.9456C25.9869 23.8681 25.9523 23.8257 25.8861 23.8216C25.801 23.8257 25.6654 23.8991 25.4872 24.0428C24.7439 24.6662 23.8881 25.205 22.9168 25.658C21.6238 26.2701 20.4005 26.5723 19.2427 26.5723C18.3875 26.5723 17.4739 26.3746 16.5062 25.9758V25.9752C15.7307 25.6554 15.1308 25.3256 14.705 24.9881C13.9809 24.4149 13.1157 23.4525 12.1097 22.0966C11.4348 21.1897 10.5934 19.9906 9.58497 18.4999C9.26513 18.8433 8.93126 19.1855 8.58325 19.5261C9.57322 21.0516 10.0673 22.2964 10.0673 23.2546C10.0673 23.5634 9.99667 23.9608 9.85775 24.4472C9.71676 24.9375 9.56929 25.2987 9.41585 25.5311C9.10995 26.0067 8.5673 26.4913 7.78685 26.9836C6.94824 27.5083 6.23281 27.7702 5.63764 27.7702C4.68588 27.7702 4.21197 27.0684 4.21197 25.6638C4.21197 23.7489 5.02501 21.9003 6.6519 20.1146C6.12754 19.5665 5.76058 19.1749 5.55291 18.9408C4.30501 20.4906 2.81122 21.6405 1.07279 22.3909C0.750073 22.5284 0.556523 22.5969 0.492144 22.5969C0.476153 22.5969 0.468262 22.5928 0.468262 22.5847C0.468262 22.5365 0.673858 22.3346 1.08505 21.9799C2.42973 20.8092 3.70421 19.5276 4.91183 18.1314C3.96214 16.9373 3.48429 15.6883 3.4764 14.3807V14.2636C3.4764 12.1933 3.90171 11.1602 4.75441 11.1602C5.556 11.1602 6.714 12.1018 8.22886 13.9833C9.073 12.9174 9.8107 12.0249 10.4426 11.3053C11.4728 10.143 12.2609 9.56201 12.8096 9.56201ZM7.44835 20.8536C6.06295 22.2721 5.21856 23.4828 4.91183 24.4876C4.89584 24.5522 4.88774 24.6121 4.88774 24.6695C4.88774 25.1312 5.2387 25.3612 5.93812 25.3612C6.23637 25.3612 6.64361 25.2521 7.15781 25.0347C7.87367 24.7339 8.52307 24.302 9.1016 23.7329C9.29517 23.5454 9.39214 23.406 9.39214 23.3136C9.39214 23.2928 9.38592 23.2768 9.3797 23.2608C8.94625 22.393 8.30105 21.5923 7.44835 20.8536ZM7.91997 16.0465C7.48621 16.6093 7.11592 17.1061 6.80932 17.5365C7.08136 17.8676 7.43235 18.2751 7.85974 18.7586C8.15592 18.5053 8.53179 18.1229 8.98788 17.6122C8.85556 17.4145 8.72063 17.2125 8.58325 17.006C8.3539 16.662 8.13279 16.3422 7.91997 16.0465ZM31.5267 16.5958C31.0079 16.5995 30.7483 16.7698 30.7483 17.1109C30.7483 17.4987 31.0734 17.7272 31.7203 17.804C32.0991 17.82 32.6839 17.8589 33.4736 17.9284C32.8969 17.0453 32.2461 16.5995 31.5267 16.5958ZM4.93613 13.3276C4.64767 13.3276 4.50272 13.5212 4.50272 13.9065C4.50272 14.726 5.0167 15.6943 6.04695 16.8101C6.47705 16.2412 6.88774 15.7037 7.27919 15.1976C6.28566 13.9512 5.50541 13.3276 4.93613 13.3276ZM12.0375 11.7856C11.8599 11.7856 11.6622 11.8539 11.4444 11.9919C11.0656 12.234 10.2691 13.1054 9.05301 14.6065C8.99495 14.6791 8.93759 14.7508 8.88102 14.8218C9.2427 15.302 9.62234 15.8294 10.0199 16.4039C10.8627 15.3752 11.4782 14.5621 11.8676 13.9645C12.3012 13.295 12.5191 12.7542 12.5191 12.3431C12.5191 11.9717 12.3579 11.7856 12.0375 11.7856Z" fill="black"/>
<path d="M30.154 9.5625L32.3188 10.8368L31.2581 12.7062L29.0928 11.4317L30.154 9.5625Z" fill="black"/>
<path fill-rule="evenodd" clip-rule="evenodd" d="M20.6327 30.0262L18.2914 28.7285L17.2827 30.6755C17.5352 30.8825 19.2101 31.8737 19.5879 31.9998L20.4076 30.441L22.7127 31.7204L23.7127 29.7646L21.4343 28.5938L20.6327 30.0262Z" fill="black"/>
<path fill-rule="evenodd" clip-rule="evenodd" d="M43.6955 10.549L41.3542 9.25101L40.3457 11.1979C40.5976 11.405 42.2725 12.3968 42.6508 12.5229L43.4699 10.9634L45.7757 12.2433L46.7754 10.2877L44.4971 9.11621L43.6955 10.549Z" fill="black"/>
<path fill-rule="evenodd" clip-rule="evenodd" d="M7.84899 7.14181L5.50769 5.84421L4.49902 7.7907C4.75155 7.99818 6.42643 8.98961 6.80421 9.11548L7.62389 7.55662L9.92904 8.8361L10.9288 6.88052L8.6506 5.70898L7.84899 7.14181Z" fill="black"/>
<path fill-rule="evenodd" clip-rule="evenodd" d="M26.3737 31.4772C27.9098 30.8977 29.462 30.0413 31.7113 29.2097C32.6508 28.857 33.5324 28.5206 34.4717 28.1765C36.201 27.5469 36.5281 27.6564 36.6705 26.5728C34.4216 27.0592 29.5461 29.1172 27.0536 30.1674C26.4073 30.4443 26.3486 30.5868 26.3737 31.4772Z" fill="black"/>
<path fill-rule="evenodd" clip-rule="evenodd" d="M16.0719 19.7152C17.608 19.1357 19.16 18.2792 21.4094 17.447C22.3494 17.0947 23.2303 16.7584 24.1702 16.4144C25.8996 15.7846 26.2262 15.8937 26.3691 14.8101C24.1198 15.2971 19.2441 17.3551 16.7516 18.4047C16.1053 18.682 16.0471 18.8247 16.0719 19.7152Z" fill="black"/>
<path d="M49.4398 3.27588C49.494 3.35751 49.4599 3.52804 49.3377 3.78726C49.2147 4.04607 49.1264 4.18919 49.0718 4.2166C47.3828 4.84368 45.693 5.47075 44.0042 6.09783C41.8519 6.91602 40.2987 7.59729 39.3449 8.14275C39.2906 8.0339 39.2906 7.82934 39.3449 7.52917C39.3995 7.25687 39.4676 7.0932 39.5492 7.03859C42.5733 5.67536 45.8706 4.4212 49.4398 3.27588Z" fill="black"/>
</svg>
