<svg width="351" height="436" viewBox="0 0 351 436" fill="none" xmlns="http://www.w3.org/2000/svg">
<path d="M236.881 237.974C234.481 234.774 232.48 231.773 230.88 228.973C229.28 225.772 228.48 221.772 228.48 216.971C228.48 213.771 229.08 210.37 230.28 206.77C231.88 202.769 233.681 198.769 235.681 194.768C238.881 188.368 241.882 181.967 244.682 175.566C247.482 169.165 250.283 162.764 253.083 156.363C256.284 149.562 259.884 142.962 263.885 136.561C267.885 129.76 272.286 123.759 277.086 118.558C280.287 115.358 283.687 113.158 287.288 111.958C291.288 110.357 295.889 110.557 301.09 112.558C307.89 115.358 313.891 118.958 319.092 123.359C328.293 132.96 335.694 144.362 341.295 157.564C347.296 170.365 350.296 185.767 350.296 203.77C350.296 210.57 349.896 217.171 349.096 223.572C348.296 229.973 347.096 236.374 345.495 242.775C336.294 285.18 323.092 321.185 305.89 350.789C289.088 379.993 264.685 402.796 232.681 419.198C222.679 423.998 212.278 427.999 201.476 431.199C191.075 434.4 179.474 436 166.672 436H161.871C147.469 436 134.868 432.6 124.066 425.799C113.665 418.998 105.064 411.197 98.2629 402.396C88.2616 388.794 83.2609 371.392 83.2609 350.189C83.2609 339.387 84.261 328.386 86.2613 317.184C88.6616 305.583 89.8618 294.181 89.8618 282.98L88.6616 276.979C57.0575 282.18 31.8542 297.582 13.0517 323.185C11.0514 325.986 8.05106 326.586 4.05053 324.985C0.450059 323.385 -0.750098 320.585 0.450059 316.584C5.25069 301.782 9.85129 287.381 14.2519 273.379C19.0525 258.977 24.4532 244.775 30.454 230.773C42.0555 220.372 54.6572 211.371 68.2589 203.77C81.8607 195.769 97.8628 190.368 116.265 187.567C128.667 186.367 134.868 191.768 134.868 203.77C134.468 211.371 133.668 219.172 132.467 227.173C131.667 234.774 130.267 242.375 128.267 249.976H128.867C128.067 255.176 127.267 260.377 126.467 265.578C126.067 270.778 125.866 276.179 125.866 281.78V288.381C125.866 306.783 130.067 320.185 138.468 328.586C147.269 336.587 160.271 340.587 177.473 340.587C183.874 340.587 190.675 339.987 197.876 338.787C209.477 336.387 221.479 332.786 233.881 327.986C246.682 322.785 258.684 316.984 269.885 310.584C281.087 303.783 290.288 297.382 297.489 291.381C297.489 284.58 297.089 277.179 296.289 269.178C295.889 260.777 294.689 253.976 292.688 248.775C286.688 249.976 280.487 250.576 274.086 250.576H269.285C255.283 250.576 244.482 246.375 236.881 237.974Z" fill="black"/>
<path d="M204.678 45.9489C223.48 37.9478 243.883 30.1468 265.886 22.5458C287.489 14.5448 308.092 7.14379 327.694 0.342901C330.494 -0.457202 332.895 0.142877 334.895 2.14314C336.895 3.74335 336.895 6.14366 334.895 9.34408L316.893 38.7479L251.484 62.151C241.083 65.7515 231.081 69.552 221.48 73.5525C211.479 77.9531 201.878 82.3537 192.676 86.7542C189.876 88.3544 187.476 87.9544 185.475 85.5541C183.475 83.1538 183.275 80.5534 184.875 77.753L204.678 45.9489Z" fill="black"/>
</svg>
