<svg width="65" height="43" viewBox="0 0 65 43" fill="none" xmlns="http://www.w3.org/2000/svg">
<path d="M47.8593 0.190918C48.8404 0.196098 49.5935 2.61584 50.1092 7.45726C50.3216 9.41982 50.5044 13.3147 50.6606 19.1411C50.8126 24.6528 50.9292 27.6584 51.0101 28.1513C51.2629 29.6414 51.7477 30.6176 52.4656 31.0751C52.8292 31.3067 53.3773 31.4239 54.1204 31.4265V31.4158C55.3867 31.4213 56.8342 31.1236 58.4617 30.5225C60.1748 29.9007 61.4861 29.1529 62.3956 28.2737C62.3956 27.738 62.0183 27.2737 61.255 26.8893C60.5814 26.5415 59.8533 26.3646 59.08 26.3591H57.0194C56.2509 26.3646 55.6427 26.1116 55.1957 25.6064C54.7489 25.107 54.5229 24.46 54.5229 23.6667C54.5229 22.5855 54.8943 21.4995 55.6281 20.4033C56.3608 19.3117 57.1201 18.7665 57.8986 18.7613C59.1852 18.7664 60.3852 19.5036 61.4909 20.9686C62.6864 22.57 63.2843 24.475 63.2843 26.6778C63.2843 28.6777 62.6864 30.2845 61.4861 31.4966C59.4632 33.5562 57.0346 34.5865 54.1903 34.6031V34.6038C54.1719 34.6038 54.1535 34.6035 54.1351 34.6034C54.1303 34.6034 54.1253 34.6035 54.1204 34.6035V34.6033C53.0161 34.5941 52.1596 34.3652 51.5502 33.9076C50.6507 33.2413 50.0438 32.0006 49.7297 30.1803C49.5273 29.0615 49.3461 25.7465 49.1741 20.24C48.9967 14.2699 48.8405 10.6043 48.6989 9.25163C48.5011 7.26855 48.2483 5.69232 47.9404 4.52306C47.6876 3.53647 47.4649 3.04358 47.2728 3.03813C46.9896 3.04359 46.5344 3.9127 45.8975 5.64161C45.7955 5.94203 45.6951 6.08897 45.5939 6.08434C45.5031 6.08897 45.4727 5.91612 45.5031 5.5601C45.6393 4.24827 45.9371 3.03813 46.4032 1.92967C46.8879 0.775959 47.374 0.196104 47.8593 0.190918ZM57.4619 21.7516C56.7883 21.7571 56.4519 21.9795 56.4519 22.4242C56.4519 22.9293 56.874 23.227 57.7128 23.3287C58.2054 23.3483 58.9639 23.399 59.9887 23.4898C59.2405 22.338 58.3964 21.7571 57.4619 21.7516Z" fill="black"/>
<path d="M16.9764 12.7417C17.6373 12.7417 17.969 13.3769 17.969 14.6481C17.969 16.2825 17.6273 17.6968 16.9447 18.8914C16.1647 20.244 15.2278 21.5832 14.1346 22.9078C14.478 23.4244 14.831 23.9657 15.1932 24.5319C16.0232 25.835 16.9184 27.035 17.8746 28.123C18.9648 29.3728 20.275 30.3661 21.805 31.1038V31.0763C22.8817 31.5746 24.2219 31.8178 25.8251 31.8132C27.4129 31.8178 29.0966 31.4625 30.8764 30.7399C32.4291 30.1101 33.8397 29.3013 35.1038 28.3048C35.3059 28.1522 35.4724 28.0764 35.6094 28.071C35.761 28.0764 35.8319 28.1672 35.8319 28.34C35.8319 28.4316 35.8118 28.5339 35.7665 28.6552C35.5994 29.169 35.5137 29.6112 35.5137 29.9875C35.5137 31.1624 36.3624 31.7474 38.0619 31.7419V31.7401C39.3364 31.7455 40.7925 31.405 42.4309 30.8004C44.1549 30.1747 45.4743 29.422 46.3906 28.5374C46.3906 27.9985 46.0111 27.5307 45.2424 27.1443C44.5647 26.7937 43.8312 26.6154 43.0532 26.61H40.9794C40.206 26.6154 39.5946 26.3611 39.144 25.8527C38.6946 25.3497 38.4664 24.6986 38.4664 23.9002C38.4664 22.8122 38.8407 21.7193 39.5789 20.6155C40.3173 19.517 41.0811 18.968 41.8645 18.9634C43.1591 18.968 44.3678 19.7104 45.4797 21.1849C46.6831 22.7964 47.2853 24.7137 47.2853 26.9306C47.2853 28.9442 46.6831 30.561 45.4743 31.7815C43.4219 33.8708 40.9545 34.909 38.0619 34.909V34.9046C36.7776 34.9045 35.8367 34.6756 35.2454 34.2083C34.6136 33.7149 34.2642 32.8504 34.1988 31.6198C34.1888 31.5182 34.1438 31.4625 34.0572 31.4571C33.9461 31.4625 33.7689 31.5588 33.5361 31.7474C32.5653 32.5656 31.4474 33.2727 30.1787 33.8673C28.4898 34.6707 26.8918 35.0674 25.3794 35.0674C24.2624 35.0674 23.0691 34.8078 21.805 34.2844V34.2836C20.792 33.8639 20.0084 33.4311 19.4523 32.9881C18.5064 32.2357 17.3763 30.9727 16.0623 29.193C15.1807 28.0028 14.0816 26.4289 12.7644 24.4725C12.3466 24.9232 11.9105 25.3723 11.4559 25.8194C12.749 27.8215 13.3944 29.4553 13.3944 30.7129C13.3944 31.1183 13.3022 31.6397 13.1207 32.2782C12.9365 32.9216 12.7439 33.3957 12.5435 33.7008C12.1439 34.325 11.4351 34.961 10.4156 35.6071C9.32023 36.2958 8.38572 36.6395 7.6083 36.6395C6.36509 36.6395 5.74606 35.7184 5.74606 33.875C5.74606 31.3617 6.80807 28.9354 8.93315 26.5917C8.24822 25.8723 7.76889 25.3584 7.49763 25.0512C5.86759 27.0852 3.91638 28.5944 1.64561 29.5793C1.22406 29.7598 0.971245 29.8498 0.887153 29.8498C0.866265 29.8498 0.855957 29.8443 0.855957 29.8337C0.855957 29.7704 1.12451 29.5054 1.66162 29.0399C3.41806 27.5034 5.08282 25.8213 6.66023 23.9888C5.41973 22.4215 4.79555 20.7823 4.78524 19.0661V18.9124C4.78524 16.1952 5.34079 14.8392 6.45461 14.8392C7.50166 14.8392 9.01426 16.0751 10.993 18.5446C12.0956 17.1456 13.0592 15.9742 13.8846 15.0298C15.2303 13.5042 16.2598 12.7417 16.9764 12.7417ZM9.97349 27.5617C8.16385 29.4234 7.06089 31.0125 6.66023 32.3311C6.63934 32.4159 6.62877 32.4947 6.62877 32.57C6.62877 33.1759 7.0872 33.4777 8.00079 33.4777C8.39037 33.4777 8.92232 33.3347 9.59398 33.0492C10.529 32.6545 11.3773 32.0876 12.133 31.3407C12.3858 31.0945 12.5125 30.9116 12.5125 30.7903C12.5125 30.763 12.5044 30.742 12.4963 30.721C11.9301 29.5821 11.0873 28.5312 9.97349 27.5617ZM10.5895 21.2525C10.0229 21.9912 9.53926 22.6431 9.13877 23.208C9.49412 23.6426 9.95259 24.1775 10.5108 24.8121C10.8977 24.4795 11.3887 23.9777 11.9844 23.3075C11.8116 23.048 11.6354 22.7828 11.4559 22.5118C11.1563 22.0603 10.8675 21.6406 10.5895 21.2525ZM41.4251 21.9734C40.7475 21.9782 40.4084 22.2018 40.4084 22.6494C40.4084 23.1584 40.833 23.4583 41.678 23.5591C42.1727 23.5801 42.9366 23.6311 43.9682 23.7224C43.2149 22.5633 42.3648 21.9782 41.4251 21.9734ZM6.69197 17.684C6.31518 17.684 6.12584 17.938 6.12584 18.4437C6.12584 19.5193 6.79722 20.7902 8.14294 22.2547C8.70475 21.508 9.2412 20.8026 9.75252 20.1383C8.45475 18.5024 7.43557 17.684 6.69197 17.684ZM15.9679 15.6601C15.736 15.6601 15.4777 15.7498 15.1932 15.9308C14.6984 16.2486 13.6581 17.3923 12.0695 19.3625C11.9937 19.4577 11.9188 19.5519 11.8449 19.6451C12.3173 20.2754 12.8132 20.9675 13.3324 21.7216C14.4334 20.3713 15.2374 19.3042 15.746 18.5198C16.3124 17.6412 16.597 16.9313 16.597 16.3918C16.597 15.9044 16.3864 15.6601 15.9679 15.6601Z" fill="black"/>
<path d="M39.6321 12.7422L42.4604 14.4147L41.0747 16.8682L38.2456 15.1955L39.6321 12.7422Z" fill="black"/>
<path fill-rule="evenodd" clip-rule="evenodd" d="M27.1951 39.6007L24.1369 37.8976L22.8193 40.4529C23.1492 40.7247 25.337 42.0256 25.8304 42.1911L26.9011 40.1451L29.9121 41.8244L31.2183 39.2575L28.2422 37.7207L27.1951 39.6007Z" fill="black"/>
<path fill-rule="evenodd" clip-rule="evenodd" d="M57.3194 14.0358L54.2611 12.3322L52.9438 14.8874C53.2729 15.1592 55.4606 16.461 55.9549 16.6264L57.0248 14.5796L60.0367 16.2595L61.3425 13.6928L58.3665 12.1553L57.3194 14.0358Z" fill="black"/>
<path fill-rule="evenodd" clip-rule="evenodd" d="M10.4969 9.56513L7.43863 7.86205L6.12109 10.4168C6.45095 10.6891 8.6387 11.9903 9.13217 12.1555L10.2029 10.1096L13.2139 11.7888L14.5198 9.22218L11.544 7.68457L10.4969 9.56513Z" fill="black"/>
<path fill-rule="evenodd" clip-rule="evenodd" d="M34.694 41.5044C36.7005 40.7438 38.7279 39.6198 41.666 38.5283C42.8932 38.0653 44.0448 37.6239 45.2717 37.1722C47.5305 36.3459 47.9578 36.4896 48.1438 35.0674C45.2063 35.7058 38.8378 38.4069 35.5821 39.7852C34.7379 40.1486 34.6611 40.3357 34.694 41.5044Z" fill="black"/>
<path fill-rule="evenodd" clip-rule="evenodd" d="M21.2378 26.0667C23.2444 25.3062 25.2715 24.1821 28.2098 23.0898C29.4376 22.6274 30.5883 22.1861 31.8161 21.7346C34.0749 20.908 34.5016 21.0512 34.6883 19.6289C31.7502 20.2682 25.3814 22.9693 22.1256 24.3468C21.2815 24.7107 21.2055 24.898 21.2378 26.0667Z" fill="black"/>
<path d="M64.8233 4.49023C64.8941 4.59737 64.8496 4.82119 64.6899 5.16142C64.5293 5.50109 64.414 5.68893 64.3427 5.72491C62.1364 6.54794 59.9291 7.37095 57.7232 8.19399C54.9118 9.26784 52.883 10.162 51.6371 10.8779C51.5663 10.735 51.5663 10.4666 51.6371 10.0726C51.7084 9.71519 51.7974 9.50038 51.904 9.42871C55.8542 7.63951 60.1611 5.99344 64.8233 4.49023Z" fill="black"/>
</svg>
