<svg width="48" height="48" viewBox="0 0 48 48" fill="none" xmlns="http://www.w3.org/2000/svg">
<path d="M35.1251 9C35.8375 9.00374 36.3842 10.7521 36.7586 14.2503C36.9128 15.6683 37.0455 18.4826 37.159 22.6924C37.2693 26.6749 37.3539 28.8466 37.4127 29.2027C37.5962 30.2795 37.9481 30.9848 38.4694 31.3154C38.7334 31.4827 39.1313 31.5674 39.6708 31.5693V31.5616C40.5901 31.5655 41.641 31.3504 42.8226 30.9161C44.0663 30.4668 45.0184 29.9265 45.6787 29.2912C45.6787 28.9041 45.4047 28.5687 44.8506 28.2909C44.3616 28.0396 43.8329 27.9118 43.2715 27.9078H41.7755C41.2176 27.9118 40.776 27.729 40.4515 27.3639C40.1271 27.0031 39.963 26.5356 39.963 25.9624C39.963 25.1812 40.2327 24.3965 40.7654 23.6044C41.2973 22.8157 41.8486 22.4218 42.4138 22.418C43.3479 22.4217 44.2191 22.9544 45.0219 24.0129C45.8898 25.17 46.3239 26.5465 46.3239 28.1381C46.3239 29.5831 45.8898 30.7441 45.0184 31.6199C43.5498 33.1081 41.7865 33.8525 39.7216 33.8645V33.865C39.7082 33.865 39.6948 33.8648 39.6815 33.8647C39.678 33.8647 39.6744 33.8648 39.6708 33.8648V33.8647C38.869 33.858 38.2472 33.6926 37.8048 33.362C37.1517 32.8806 36.7111 31.9841 36.4831 30.6689C36.3362 29.8605 36.2046 27.4652 36.0797 23.4864C35.9509 19.1728 35.8375 16.5242 35.7347 15.5468C35.5911 14.1139 35.4076 12.975 35.184 12.1302C35.0005 11.4173 34.8388 11.0612 34.6994 11.0572C34.4938 11.0612 34.1633 11.6892 33.7009 12.9384C33.6268 13.1555 33.5539 13.2616 33.4805 13.2583C33.4145 13.2616 33.3925 13.1367 33.4145 12.8795C33.5134 11.9316 33.7296 11.0572 34.068 10.2563C34.4199 9.42272 34.7728 9.00375 35.1251 9ZM42.0967 24.5787C41.6077 24.5826 41.3635 24.7434 41.3635 25.0646C41.3635 25.4296 41.6699 25.6447 42.2789 25.7182C42.6365 25.7324 43.1872 25.769 43.9313 25.8346C43.3881 25.0024 42.7752 24.5826 42.0967 24.5787Z" fill="black"/>
<path d="M12.7037 18.0679C13.1834 18.0679 13.4243 18.5269 13.4243 19.4454C13.4243 20.6263 13.1762 21.6482 12.6806 22.5114C12.1143 23.4886 11.4341 24.4563 10.6404 25.4134C10.8897 25.7867 11.146 26.1778 11.409 26.5868C12.0116 27.5284 12.6616 28.3955 13.3558 29.1816C14.1472 30.0846 15.0984 30.8024 16.2093 31.3354V31.3155C16.9909 31.6756 17.964 31.8513 19.1279 31.848C20.2807 31.8513 21.5031 31.5946 22.7952 31.0724C23.9225 30.6174 24.9466 30.033 25.8644 29.313C26.0111 29.2027 26.132 29.148 26.2314 29.144C26.3415 29.148 26.3929 29.2136 26.3929 29.3384C26.3929 29.4046 26.3784 29.4785 26.3455 29.5661C26.2241 29.9374 26.1619 30.2569 26.1619 30.5288C26.1619 31.3777 26.7781 31.8004 28.012 31.7965V31.7952C28.9372 31.7991 29.9944 31.5531 31.1839 31.1162C32.4355 30.6641 33.3935 30.1202 34.0587 29.481C34.0587 29.0916 33.7832 28.7536 33.2251 28.4745C32.7331 28.2212 32.2005 28.0923 31.6357 28.0884H30.1301C29.5686 28.0923 29.1247 27.9086 28.7976 27.5412C28.4713 27.1778 28.3057 26.7074 28.3057 26.1304C28.3057 25.3443 28.5774 24.5546 29.1133 23.7571C29.6494 22.9634 30.204 22.5667 30.7727 22.5634C31.7125 22.5667 32.5901 23.1031 33.3974 24.1685C34.271 25.3329 34.7082 26.7182 34.7082 28.3201C34.7082 29.775 34.271 30.9432 33.3935 31.8251C31.9034 33.3347 30.112 34.0848 28.012 34.0848V34.0816C27.0796 34.0816 26.3965 33.9162 25.9672 33.5786C25.5085 33.2221 25.2548 32.5974 25.2073 31.7083C25.2001 31.6348 25.1673 31.5946 25.1045 31.5907C25.0238 31.5946 24.8952 31.6641 24.7262 31.8004C24.0214 32.3916 23.2097 32.9026 22.2887 33.3322C21.0625 33.9127 19.9023 34.1993 18.8043 34.1993C17.9933 34.1993 17.127 34.0118 16.2093 33.6336V33.633C15.4738 33.3297 14.9049 33.017 14.5012 32.6969C13.8144 32.1533 12.994 31.2407 12.04 29.9548C11.3999 29.0948 10.602 27.9576 9.64565 26.5439C9.34234 26.8696 9.02572 27.1941 8.69569 27.5172C9.63451 28.9638 10.103 30.1443 10.103 31.0529C10.103 31.3459 10.0361 31.7226 9.90434 32.184C9.77064 32.6489 9.63078 32.9914 9.48527 33.2118C9.19517 33.6629 8.68057 34.1224 7.94044 34.5893C7.14516 35.0869 6.4667 35.3353 5.90228 35.3353C4.9997 35.3353 4.55027 34.6697 4.55027 33.3377C4.55027 31.5217 5.3213 29.7686 6.86414 28.0752C6.36687 27.5554 6.01887 27.1841 5.82193 26.9621C4.6385 28.4318 3.2219 29.5222 1.5733 30.2339C1.26725 30.3643 1.0837 30.4293 1.02265 30.4293C1.00748 30.4293 1 30.4254 1 30.4177C1 30.372 1.19497 30.1805 1.58492 29.8441C2.86012 28.7339 4.06875 27.5185 5.21397 26.1945C4.31335 25.062 3.86019 23.8776 3.85271 22.6376V22.5265C3.85271 20.5632 4.25604 19.5834 5.06469 19.5834C5.82486 19.5834 6.92302 20.4764 8.35961 22.2607C9.16013 21.2499 9.85972 20.4035 10.4589 19.7211C11.436 18.6188 12.1833 18.0679 12.7037 18.0679ZM7.61944 28.7761C6.30561 30.1212 5.50485 31.2694 5.21397 32.2222C5.19881 32.2835 5.19113 32.3404 5.19113 32.3948C5.19113 32.8326 5.52396 33.0507 6.18723 33.0507C6.47008 33.0507 6.85627 32.9473 7.34391 32.7411C8.02277 32.4558 8.63862 32.0463 9.18726 31.5066C9.37083 31.3287 9.46279 31.1965 9.46279 31.1089C9.46279 31.0892 9.45689 31.074 9.45099 31.0588C9.03994 30.2359 8.42808 29.4765 7.61944 28.7761ZM8.06669 24.2173C7.65533 24.7511 7.30418 25.2221 7.01342 25.6303C7.27141 25.9443 7.60426 26.3308 8.00956 26.7893C8.29044 26.549 8.64689 26.1865 9.07942 25.7022C8.95393 25.5147 8.82597 25.3231 8.69569 25.1272C8.47819 24.801 8.26851 24.4978 8.06669 24.2173ZM30.4537 24.7382C29.9617 24.7417 29.7155 24.9032 29.7155 25.2267C29.7155 25.5944 30.0238 25.8111 30.6372 25.884C30.9965 25.8992 31.5511 25.936 32.3 26.002C31.7531 25.1645 31.1359 24.7417 30.4537 24.7382ZM5.23701 21.6389C4.96346 21.6389 4.826 21.8225 4.826 22.1879C4.826 22.965 5.31342 23.8833 6.29044 24.9415C6.69831 24.402 7.08779 23.8922 7.45901 23.4123C6.51681 22.2303 5.77688 21.6389 5.23701 21.6389ZM11.9714 20.1766C11.8031 20.1766 11.6156 20.2414 11.409 20.3722C11.0498 20.6018 10.2945 21.4281 9.14118 22.8517C9.08612 22.9205 9.03172 22.9886 8.97808 23.0559C9.32107 23.5113 9.68109 24.0114 10.0581 24.5563C10.8574 23.5807 11.4411 22.8096 11.8104 22.2428C12.2216 21.608 12.4282 21.0951 12.4282 20.7052C12.4282 20.3531 12.2753 20.1766 11.9714 20.1766Z" fill="black"/>
<path d="M29.1519 18.0684L31.2048 19.2768L30.199 21.0496L28.1455 19.841L29.1519 18.0684Z" fill="black"/>
<path fill-rule="evenodd" clip-rule="evenodd" d="M20.1227 37.4751L17.9024 36.2445L16.9458 38.0908C17.1853 38.2872 18.7736 39.2272 19.1319 39.3468L19.9092 37.8685L22.0953 39.0818L23.0436 37.2271L20.8829 36.1167L20.1227 37.4751Z" fill="black"/>
<path fill-rule="evenodd" clip-rule="evenodd" d="M41.9936 19.0038L39.7733 17.7729L38.8169 19.6191C39.0558 19.8155 40.6441 20.7561 41.0029 20.8757L41.7797 19.3967L43.9664 20.6106L44.9144 18.756L42.7538 17.645L41.9936 19.0038Z" fill="black"/>
<path fill-rule="evenodd" clip-rule="evenodd" d="M7.99914 15.7729L5.77882 14.5423L4.82227 16.3882C5.06175 16.585 6.65008 17.5252 7.00834 17.6445L7.78568 16.1662L9.97171 17.3796L10.9198 15.5251L8.75933 14.4141L7.99914 15.7729Z" fill="black"/>
<path fill-rule="evenodd" clip-rule="evenodd" d="M25.5668 38.8508C27.0236 38.3012 28.4955 37.489 30.6286 36.7004C31.5196 36.3659 32.3556 36.0469 33.2464 35.7206C34.8863 35.1235 35.1965 35.2274 35.3316 34.1997C33.1989 34.661 28.5753 36.6127 26.2116 37.6086C25.5987 37.8712 25.543 38.0063 25.5668 38.8508Z" fill="black"/>
<path fill-rule="evenodd" clip-rule="evenodd" d="M15.7972 27.6966C17.254 27.147 18.7257 26.3349 20.859 25.5456C21.7504 25.2115 22.5858 24.8926 23.4772 24.5664C25.1171 23.9691 25.4269 24.0726 25.5624 23.0449C23.4293 23.5068 18.8055 25.4585 16.4418 26.4538C15.8289 26.7168 15.7738 26.8521 15.7972 27.6966Z" fill="black"/>
<path d="M47.441 12.1069C47.4924 12.1843 47.4601 12.3461 47.3441 12.5919C47.2275 12.8373 47.1438 12.9731 47.092 12.9991C45.4903 13.5937 43.8878 14.1884 42.2862 14.7831C40.2451 15.559 38.7722 16.2051 37.8677 16.7223C37.8162 16.6191 37.8162 16.4251 37.8677 16.1405C37.9194 15.8822 37.984 15.727 38.0614 15.6752C40.9293 14.3824 44.0562 13.1931 47.441 12.1069Z" fill="black"/>
</svg>
