<svg width="500" height="500" viewBox="0 0 500 500" fill="none" xmlns="http://www.w3.org/2000/svg">
<g clip-path="url(#clip0_115_13)">
<rect width="500" height="500" rx="250" fill="white"/>
<path d="M170.797 63C181.488 63.0562 189.694 89.2961 195.313 141.797C197.626 163.079 199.619 205.315 201.321 268.497C202.977 328.267 204.247 360.861 205.129 366.205C207.883 382.365 213.165 392.951 220.989 397.912C224.95 400.423 230.922 401.693 239.019 401.722V401.606C252.816 401.666 268.588 398.438 286.322 391.919C304.988 385.176 319.276 377.067 329.187 367.533C329.187 361.723 325.075 356.689 316.758 352.521C309.419 348.749 301.485 346.83 293.059 346.77H270.607C262.233 346.83 255.606 344.087 250.735 338.608C245.867 333.192 243.405 326.177 243.405 317.574C243.405 305.85 247.451 294.072 255.447 282.185C263.43 270.348 271.703 264.436 280.186 264.379C294.205 264.435 307.281 272.429 319.329 288.316C332.355 305.681 338.87 326.339 338.87 350.227C338.87 371.914 332.355 389.338 319.276 402.482C297.235 424.817 270.772 435.99 239.781 436.17V436.177C239.58 436.177 239.379 436.174 239.18 436.173C239.127 436.173 239.073 436.174 239.019 436.174V436.172C226.986 436.072 217.654 433.59 211.013 428.627C201.212 421.402 194.6 407.948 191.177 388.209C188.972 376.076 186.998 340.128 185.124 280.414C183.191 215.674 181.488 175.924 179.945 161.255C177.791 139.751 175.036 122.658 171.681 109.978C168.927 99.2795 166.5 93.9345 164.407 93.8754C161.322 93.9347 156.362 103.359 149.421 122.108C148.311 125.366 147.217 126.959 146.114 126.909C145.124 126.959 144.793 125.085 145.124 121.224C146.608 106.998 149.854 93.8754 154.932 81.8552C160.213 69.3443 165.51 63.0562 170.797 63ZM275.428 296.807C268.089 296.866 264.423 299.278 264.423 304.1C264.423 309.578 269.022 312.806 278.161 313.909C283.529 314.122 291.794 314.671 302.961 315.656C294.808 303.165 285.61 296.866 275.428 296.807Z" fill="black"/>
<path fill-rule="evenodd" clip-rule="evenodd" d="M273.879 213.139L240.556 194.665L226.203 222.374C229.788 225.322 253.626 239.438 259.011 241.232L270.669 219.037L303.487 237.254L317.715 209.42L285.288 192.747L273.879 213.139Z" fill="black"/>
<path d="M355.644 109.624C356.416 110.785 355.931 113.212 354.191 116.902C352.441 120.585 351.185 122.622 350.408 123.013C326.368 131.937 302.318 140.862 278.281 149.787C247.648 161.432 225.542 171.129 211.967 178.892C211.195 177.343 211.195 174.431 211.967 170.159C212.744 166.284 213.713 163.954 214.875 163.177C257.916 143.775 304.845 125.924 355.644 109.624Z" fill="black"/>
</g>
<defs>
<clipPath id="clip0_115_13">
<rect width="500" height="500" fill="white"/>
</clipPath>
</defs>
</svg>
