<svg width="500" height="500" viewBox="0 0 500 500" fill="none" xmlns="http://www.w3.org/2000/svg">
<rect width="500" height="500" fill="white"/>
<path d="M310.881 268.974C308.481 265.774 306.48 262.773 304.88 259.973C303.28 256.772 302.48 252.772 302.48 247.971C302.48 244.771 303.08 241.37 304.28 237.77C305.88 233.769 307.681 229.769 309.681 225.768C312.881 219.368 315.882 212.967 318.682 206.566C321.482 200.165 324.283 193.764 327.083 187.363C330.284 180.562 333.884 173.962 337.885 167.561C341.885 160.76 346.286 154.759 351.086 149.558C354.287 146.358 357.687 144.158 361.288 142.958C365.288 141.357 369.889 141.557 375.09 143.558C381.89 146.358 387.891 149.958 393.092 154.359C402.293 163.96 409.694 175.362 415.295 188.564C421.296 201.365 424.296 216.767 424.296 234.77C424.296 241.57 423.896 248.171 423.096 254.572C422.296 260.973 421.096 267.374 419.495 273.775C410.294 316.18 397.092 352.185 379.89 381.789C363.088 410.993 338.685 433.796 306.681 450.198C296.679 454.998 286.278 458.999 275.476 462.199C265.075 465.4 253.474 467 240.672 467H235.871C221.469 467 208.868 463.6 198.066 456.799C187.665 449.998 179.064 442.197 172.263 433.396C162.262 419.794 157.261 402.392 157.261 381.189C157.261 370.387 158.261 359.386 160.261 348.184C162.662 336.583 163.862 325.181 163.862 313.98L162.662 307.979C131.057 313.18 105.854 328.582 87.0517 354.185C85.0514 356.986 82.0511 357.586 78.0505 355.985C74.4501 354.385 73.2499 351.585 74.4501 347.584C79.2507 332.782 83.8513 318.381 88.2519 304.379C93.0525 289.977 98.4532 275.775 104.454 261.773C116.056 251.372 128.657 242.371 142.259 234.77C155.861 226.769 171.863 221.368 190.265 218.567C202.667 217.367 208.868 222.768 208.868 234.77C208.468 242.371 207.668 250.172 206.467 258.173C205.667 265.774 204.267 273.375 202.267 280.976H202.867C202.067 286.176 201.267 291.377 200.467 296.578C200.067 301.778 199.866 307.179 199.866 312.78V319.381C199.866 337.783 204.067 351.185 212.468 359.586C221.269 367.587 234.271 371.587 251.473 371.587C257.874 371.587 264.675 370.987 271.876 369.787C283.477 367.387 295.479 363.786 307.881 358.986C320.682 353.785 332.684 347.984 343.885 341.584C355.087 334.783 364.288 328.382 371.489 322.381C371.489 315.58 371.089 308.179 370.289 300.178C369.889 291.777 368.689 284.976 366.688 279.775C360.688 280.976 354.487 281.576 348.086 281.576H343.285C329.283 281.576 318.482 277.375 310.881 268.974Z" fill="black"/>
<path d="M278.678 76.9489C297.48 68.9478 317.883 61.1468 339.886 53.5458C361.489 45.5448 382.092 38.1438 401.694 31.3429C404.494 30.5428 406.895 31.1429 408.895 33.1431C410.895 34.7433 410.895 37.1437 408.895 40.3441L390.893 69.7479L325.484 93.151C315.083 96.7515 305.081 100.552 295.48 104.552C285.479 108.953 275.878 113.354 266.676 117.754C263.876 119.354 261.476 118.954 259.475 116.554C257.475 114.154 257.275 111.553 258.875 108.753L278.678 76.9489Z" fill="black"/>
</svg>
